<?xml version="1.0" standalone="no"?>
<!DOCTYPE svg PUBLIC "-//W3C//DTD SVG 20010904//EN"
 "http://www.w3.org/TR/2001/REC-SVG-20010904/DTD/svg10.dtd">
<svg version="1.0" xmlns="http://www.w3.org/2000/svg"
 width="326.000000pt" height="326.000000pt" viewBox="0 0 326.000000 326.000000"
 preserveAspectRatio="xMidYMid meet">
<metadata>
Created by potrace 1.11, written by Peter Selinger 2001-2013
</metadata>
<g transform="translate(0.000000,326.000000) scale(0.100000,-0.100000)"
fill="#000000" stroke="none">
<path d="M0 1630 l0 -1630 295 0 295 0 0 35 c0 19 -4 35 -10 35 -5 0 -10 6
-10 14 0 7 -15 25 -34 39 -53 41 -70 158 -24 170 11 3 17 10 13 16 -3 6 -1 11
4 11 6 0 11 9 11 20 0 17 7 20 38 20 24 0 39 5 39 13 0 6 3 21 6 33 9 26 -28
68 -54 61 -12 -3 -19 0 -19 9 0 8 6 14 14 14 12 0 12 4 0 30 -16 32 -34 48
-34 31 0 -6 -4 -11 -9 -11 -5 0 -9 6 -8 12 2 50 -3 58 -34 58 -17 0 -28 -4
-24 -10 3 -5 2 -10 -3 -10 -5 0 -12 9 -15 20 -3 13 0 20 9 20 8 0 11 6 8 15
-7 18 0 19 26 3 10 -7 23 -9 27 -5 4 5 1 12 -6 16 -7 5 -14 21 -13 35 0 15 -4
29 -9 32 -5 3 -9 -4 -9 -15 0 -25 -4 -26 -35 -5 -28 18 -33 34 -10 34 17 0 20
16 5 25 -5 3 -7 12 -3 20 4 11 1 13 -11 9 -11 -4 -16 0 -17 12 0 11 -3 14 -6
7 -7 -18 -33 -16 -33 1 0 8 8 22 17 32 17 16 18 16 21 1 5 -24 21 -21 31 6 5
13 21 31 35 40 14 10 26 23 26 31 0 8 12 12 36 11 19 0 38 3 40 7 3 4 17 8 31
8 14 0 47 11 75 25 27 14 56 25 63 25 17 0 53 34 83 77 12 17 32 33 45 35 12
2 22 9 22 17 0 18 30 29 80 30 22 1 50 8 61 16 12 8 24 11 28 8 3 -3 6 -2 6 4
0 13 75 37 94 30 8 -3 18 -2 21 3 4 6 17 10 30 10 16 0 46 22 90 65 36 36 70
65 76 65 5 0 12 14 15 30 5 23 12 30 30 30 28 0 53 38 34 50 -7 4 -8 10 -3 13
12 8 1 91 -15 109 -17 21 -8 63 21 94 18 19 27 40 27 61 0 18 4 33 8 33 11 0
42 29 67 63 11 15 25 27 31 27 7 0 25 12 42 28 16 15 45 35 63 46 44 24 120
97 113 108 -3 4 -1 8 5 8 13 0 41 29 41 43 0 8 -3 9 -8 1 -11 -17 -42 -25 -43
-11 -1 7 -3 26 -4 42 -2 17 -8 57 -15 90 -6 33 -12 66 -13 73 0 6 -3 12 -7 12
-12 0 -8 39 6 51 8 6 14 8 14 3 0 -5 5 -2 10 6 9 13 11 13 20 0 7 -11 12 -12
18 -3 4 7 39 13 84 15 68 3 79 6 89 25 7 13 18 23 25 23 6 0 14 9 17 20 7 29
39 25 73 -10 16 -16 34 -30 40 -30 15 0 29 -30 60 -129 17 -53 29 -79 34 -71
10 17 25 -73 16 -96 -9 -24 20 -108 45 -130 43 -38 196 -49 272 -19 9 4 17 3
17 -1 -1 -18 -40 -55 -68 -65 -26 -9 -52 -44 -52 -69 0 -5 11 -21 24 -37 13
-15 38 -55 56 -88 32 -60 32 -61 26 -158 -5 -71 -4 -103 5 -113 12 -15 6 -29
-13 -29 -13 0 -25 -21 -32 -55 -5 -25 -44 -50 -77 -50 -9 0 -32 -7 -52 -15
-32 -13 -36 -13 -51 4 -9 10 -16 23 -16 30 0 12 -15 30 -81 102 -20 21 -35 39
-32 39 2 0 -5 12 -16 27 -12 14 -24 43 -27 65 -6 34 -24 55 -24 27 0 -6 -5 -9
-12 -7 -7 3 -24 -9 -39 -24 -32 -35 -64 -53 -112 -62 -46 -9 -95 -57 -99 -98
-2 -17 -9 -34 -17 -36 -11 -4 -12 3 -7 31 5 27 3 36 -10 41 -9 3 -20 4 -24 1
-5 -3 -28 -8 -52 -10 -24 -3 -69 -9 -102 -14 -32 -5 -64 -7 -72 -4 -8 3 -14 0
-14 -6 0 -6 -9 -11 -21 -11 -11 0 -33 -8 -47 -19 -44 -31 -102 -61 -117 -61
-8 0 -15 -7 -15 -15 0 -8 -4 -15 -8 -15 -4 0 -23 -13 -42 -30 -31 -26 -33 -31
-19 -42 9 -7 15 -21 13 -32 -1 -10 1 -26 6 -35 4 -9 16 -36 26 -61 19 -47 38
-72 64 -82 9 -3 22 -18 30 -34 15 -30 35 -51 84 -87 15 -12 42 -35 58 -50 23
-21 33 -25 43 -17 9 8 15 8 20 0 18 -29 80 3 69 37 -3 10 2 6 10 -9 10 -17 22
-25 31 -22 8 4 15 1 15 -4 0 -6 -8 -12 -17 -14 -15 -3 -14 -5 5 -10 19 -5 22
-2 22 22 0 16 -5 30 -12 32 -7 3 -2 18 15 43 15 22 27 45 27 52 0 7 5 13 10
13 6 0 9 3 8 8 -4 10 34 52 47 52 13 0 38 -54 26 -58 -5 -2 -2 -17 7 -35 23
-45 23 -55 1 -93 -10 -19 -19 -47 -19 -62 0 -31 -39 -78 -76 -92 -53 -20 -13
-64 54 -58 44 4 53 20 78 128 16 72 68 196 97 233 8 9 28 22 46 28 39 14 56 2
66 -47 5 -31 10 -35 33 -33 37 3 72 -11 72 -27 0 -8 -4 -14 -10 -14 -5 0 -10
-11 -10 -25 0 -14 5 -25 11 -25 7 0 18 -8 25 -17 13 -17 13 -17 14 0 0 18 20
25 20 7 0 -23 19 -7 30 25 6 19 16 33 21 29 5 -3 9 -2 8 3 -4 23 4 32 31 38
17 4 30 10 31 13 3 28 9 46 18 55 6 6 11 19 11 29 0 10 10 20 23 23 12 3 30
19 39 35 9 17 23 30 30 30 38 0 44 124 8 160 -24 24 -22 34 4 24 9 -3 13 -10
10 -15 -3 -5 9 -9 25 -9 17 0 31 1 32 3 0 1 3 23 5 50 4 37 2 48 -10 53 -24 9
-19 31 9 38 22 6 25 12 25 48 0 25 6 45 15 52 12 8 16 35 18 106 2 52 6 101
10 107 4 7 8 54 8 105 0 111 4 128 29 128 41 0 59 144 25 196 -8 13 -15 28
-15 35 0 6 -9 18 -19 27 -10 10 -26 37 -35 62 -14 37 -15 54 -6 95 6 28 14 62
17 77 3 15 9 25 14 22 5 -3 9 6 9 20 0 14 5 26 10 26 6 0 10 9 10 19 0 11 4
22 9 25 5 3 12 21 15 39 3 18 15 49 26 70 11 20 20 46 20 58 0 19 49 151 71
193 6 10 7 36 4 58 -8 45 -39 64 -89 54 -37 -8 -144 -60 -222 -108 -34 -21
-65 -38 -70 -38 -10 0 -106 -50 -114 -59 -3 -3 -22 -14 -42 -25 -20 -10 -39
-25 -42 -32 -3 -8 -10 -14 -16 -14 -6 0 -26 -11 -44 -25 -18 -14 -40 -25 -49
-25 -9 0 -19 -4 -22 -10 -8 -13 -62 -13 -70 0 -3 5 -25 14 -48 20 -23 6 -55
17 -72 25 -16 7 -59 17 -95 21 -36 4 -76 14 -89 22 -17 12 -52 16 -132 16
l-109 1 -30 62 c-16 35 -32 80 -35 100 -4 21 -15 56 -25 78 -10 23 -23 61 -30
85 -7 25 -20 61 -30 80 -9 19 -15 40 -13 46 2 6 -6 14 -19 18 -13 3 -339 6
-725 6 l-703 0 0 -1630z m472 1119 c5 18 11 22 25 16 10 -4 32 -10 48 -14 24
-5 30 -12 32 -36 l2 -30 -7 30 -7 30 -12 -39 c-7 -22 -10 -43 -7 -48 4 -5 -4
-12 -15 -15 -20 -5 -20 -6 -4 -19 17 -12 16 -13 -9 -14 -50 0 -92 64 -57 86 8
5 7 9 -3 15 -10 6 -14 18 -10 36 l6 28 6 -25 6 -25 6 24z m117 -257 c-5 -2 -9
-11 -9 -19 0 -13 2 -13 17 -2 15 12 16 12 10 -3 -4 -12 -2 -15 8 -12 8 3 11
12 8 20 -3 9 1 14 12 14 12 0 15 -5 10 -22 -10 -31 -16 -37 -51 -44 -30 -6
-31 -5 -28 33 4 69 3 65 18 51 8 -7 10 -14 5 -16z m1871 -302 c0 -5 -4 -10
-10 -10 -5 0 -10 5 -10 10 0 6 5 10 10 10 6 0 10 -4 10 -10z m-900 -45 c0 -8
-4 -15 -9 -15 -13 0 -22 16 -14 24 11 11 23 6 23 -9z m822 -17 c7 -19 -2 -38
-18 -38 -8 0 -14 8 -14 18 0 30 23 44 32 20z m297 -25 c0 -25 -1 -26 -9 -8
-12 27 -12 35 0 35 6 0 10 -12 9 -27z m-1057 -85 c-9 -9 -12 -7 -12 12 0 19 3
21 12 12 9 -9 9 -15 0 -24z m999 -61 c-8 -8 -11 -7 -11 4 0 20 13 34 18 19 3
-7 -1 -17 -7 -23z m-1086 13 c7 -11 -39 -25 -55 -15 -5 3 -8 11 -5 16 8 12 52
12 60 -1z m-148 -344 c4 -3 0 -6 -8 -7 -8 0 -29 -2 -46 -5 -31 -4 -42 4 -26
20 8 8 71 2 80 -8z m1183 -326 c0 -5 -2 -10 -4 -10 -3 0 -8 5 -11 10 -3 6 -1
10 4 10 6 0 11 -4 11 -10z m-886 -287 c-1 -18 2 -33 6 -33 5 0 8 -9 7 -20 -1
-11 -5 -20 -10 -20 -4 0 -5 -4 -2 -10 9 -15 -4 -12 -20 4 -8 8 -16 32 -17 54
-2 24 -7 38 -14 35 -6 -2 -14 3 -18 12 -5 13 1 15 33 14 36 -3 38 -4 35 -36z
m71 -10 c18 -14 18 -15 2 -9 -10 3 -23 6 -28 6 -5 0 -9 5 -9 10 0 14 12 12 35
-7z m-1408 -100 c-3 -10 -5 -4 -5 12 0 17 2 24 5 18 2 -7 2 -21 0 -30z m60 -9
c21 -6 20 -8 -14 -25 -46 -23 -46 -23 -34 0 6 10 7 21 4 25 -8 8 15 8 44 0z
m123 -374 c0 -5 -2 -10 -4 -10 -3 0 -8 5 -11 10 -3 6 -1 10 4 10 6 0 11 -4 11
-10z"/>
<path d="M1961 2249 c-1 -19 -9 -30 -31 -39 -22 -9 -31 -21 -36 -46 -9 -50 -2
-58 29 -30 15 14 27 22 27 19 0 -3 9 2 20 12 15 14 20 30 19 64 -1 41 -2 43
-9 16 l-7 -30 -5 30 c-5 29 -5 29 -7 4z"/>
<path d="M2116 1823 c-11 -12 -6 -44 9 -49 16 -7 45 17 45 37 0 7 -3 9 -6 6
-4 -3 -14 -2 -24 3 -10 5 -20 6 -24 3z"/>
<path d="M2310 1741 c0 -6 5 -13 10 -16 6 -3 10 1 10 9 0 9 -4 16 -10 16 -5 0
-10 -4 -10 -9z"/>
<path d="M2530 1011 c0 -6 5 -13 10 -16 6 -3 10 1 10 9 0 9 -4 16 -10 16 -5 0
-10 -4 -10 -9z"/>
<path d="M1538 679 c-15 -8 -18 -25 -17 -102 0 -51 4 -98 7 -104 4 -6 34 -14
68 -17 33 -3 68 -8 77 -12 19 -7 23 -24 6 -24 -6 0 -30 -14 -53 -30 -46 -33
-58 -37 -159 -53 -68 -10 -69 -10 -95 18 -15 15 -20 24 -12 20 8 -4 0 6 -18
24 -18 17 -37 31 -43 31 -5 0 -9 6 -10 13 -2 46 -11 72 -28 91 -12 12 -21 28
-21 34 0 7 -11 12 -25 12 -13 0 -29 8 -35 18 -8 13 -13 14 -17 4 -4 -10 -8 -9
-19 5 -13 17 -13 17 -14 -4 0 -19 -4 -21 -35 -16 -38 6 -45 -2 -17 -23 15 -12
13 -13 -19 -14 -20 0 -42 -7 -49 -15 -7 -8 -16 -13 -20 -10 -8 5 -40 -37 -40
-52 0 -4 5 -1 10 7 9 13 10 13 10 0 0 -9 -12 -23 -27 -32 -21 -13 -23 -18 -10
-18 10 0 17 -8 17 -18 0 -10 6 -27 14 -38 16 -22 21 -124 12 -209 -6 -60 -2
-69 47 -84 28 -10 37 -18 36 -34 -1 -16 -3 -17 -6 -6 -4 15 -7 15 -34 2 -16
-8 -29 -21 -29 -28 0 -12 95 -14 574 -15 542 0 575 0 579 17 4 17 5 17 6 1 2
-26 41 -24 41 1 0 11 -5 23 -11 27 -8 4 -7 9 2 16 11 7 11 8 -1 7 -23 -3 -70
12 -70 23 0 5 9 12 19 15 11 3 22 12 24 22 4 12 5 11 6 -4 1 -21 33 -27 59
-11 7 4 12 4 12 -1 0 -4 4 -2 9 5 9 15 -27 62 -48 62 -6 0 -11 5 -11 10 0 6 7
10 16 10 8 0 13 4 10 9 -4 5 -1 11 6 13 7 3 -2 10 -20 16 -18 6 -32 7 -32 2 0
-11 -32 0 -42 14 -5 7 -8 4 -8 -6 0 -10 -4 -18 -10 -18 -5 0 -10 14 -10 31 0
27 2 30 15 19 8 -7 15 -9 16 -4 7 66 5 84 -7 84 -8 0 -14 5 -14 10 0 6 9 10
20 10 16 0 20 -7 20 -35 0 -22 5 -35 13 -35 24 0 35 21 27 51 -6 20 -5 31 4
36 8 5 13 19 12 32 0 13 5 26 13 29 10 3 12 0 7 -14 -7 -17 -6 -17 14 1 11 10
20 23 20 29 0 6 -4 5 -9 -3 -7 -11 -9 -11 -14 0 -4 11 -7 12 -18 2 -20 -19
-31 -15 -19 6 5 11 10 22 10 25 0 12 -38 6 -43 -6 -4 -10 -6 -10 -6 0 -1 6 -6
12 -12 12 -7 0 -9 -10 -7 -25 3 -13 1 -22 -3 -19 -5 3 -9 20 -9 37 -1 29 -2
30 -14 15 -12 -16 -14 -16 -26 7 -13 25 -30 33 -30 15 0 -5 -7 -7 -15 -4 -8 4
-15 1 -15 -5 0 -16 -42 -13 -86 5 -24 11 -65 16 -106 16 -49 -1 -72 3 -83 15
-9 8 -25 13 -36 10 -30 -8 -49 2 -49 25 0 10 -4 17 -9 13 -6 -3 -8 4 -6 17 9
46 -59 76 -107 47z m-268 -175 c0 -8 -5 -12 -10 -9 -6 4 -8 11 -5 16 9 14 15
11 15 -7z m833 -57 c-3 -5 -9 -3 -14 4 -4 7 -5 17 -2 22 3 5 9 3 14 -4 4 -7 5
-17 2 -22z m-1066 1 c-3 -8 -6 -5 -6 6 -1 11 2 17 5 13 3 -3 4 -12 1 -19z m33
-62 c0 -3 -4 -8 -10 -11 -5 -3 -10 -1 -10 4 0 6 5 11 10 11 6 0 10 -2 10 -4z
m-30 -41 c0 -9 7 -18 15 -21 8 -4 15 -11 15 -16 0 -6 -6 -5 -15 2 -12 10 -15
10 -16 -1 0 -8 -4 -5 -9 6 -12 28 -12 45 0 45 6 0 10 -7 10 -15z m1056 -162
c-3 -3 -13 -2 -23 2 -17 7 -17 8 2 15 19 7 34 -5 21 -17z m44 7 c0 -5 -4 -10
-10 -10 -5 0 -10 5 -10 10 0 6 5 10 10 10 6 0 10 -4 10 -10z m-1130 -41 c0 -5
-4 -9 -10 -9 -5 0 -10 7 -10 16 0 8 5 12 10 9 6 -3 10 -10 10 -16z m1120 11
c0 -5 -9 -10 -20 -10 -11 0 -20 5 -20 10 0 6 9 10 20 10 11 0 20 -4 20 -10z"/>
<path d="M2470 640 c0 -5 7 -7 15 -4 8 4 15 8 15 10 0 2 -7 4 -15 4 -8 0 -15
-4 -15 -10z"/>
<path d="M2960 586 c0 -9 5 -16 10 -16 6 0 10 4 10 9 0 6 -4 13 -10 16 -5 3
-10 -1 -10 -9z"/>
<path d="M2166 542 c-5 -9 41 -8 51 1 3 4 -5 7 -20 7 -14 0 -28 -4 -31 -8z"/>
<path d="M2273 473 c4 -3 1 -13 -5 -21 -10 -11 -8 -13 12 -10 33 4 40 38 9 38
-12 0 -19 -3 -16 -7z"/>
<path d="M2321 444 c0 -11 3 -14 6 -6 3 7 2 16 -1 19 -3 4 -6 -2 -5 -13z"/>
<path d="M2205 310 c-3 -5 -1 -10 4 -10 6 0 11 5 11 10 0 6 -2 10 -4 10 -3 0
-8 -4 -11 -10z"/>
<path d="M2185 270 c3 -5 8 -10 11 -10 2 0 4 5 4 10 0 6 -5 10 -11 10 -5 0 -7
-4 -4 -10z"/>
<path d="M2236 235 c4 -8 10 -15 15 -15 5 0 9 7 9 15 0 8 -7 15 -15 15 -9 0
-12 -6 -9 -15z"/>
<path d="M2339 171 c-15 -5 -14 -9 1 -36 12 -22 23 -29 40 -27 17 3 21 0 17
-12 -4 -10 -1 -16 7 -16 20 0 37 25 30 43 -8 22 -75 55 -95 48z"/>
<path d="M2204 74 c-7 -28 19 -74 41 -74 20 0 30 46 15 65 -6 8 -9 18 -6 23 3
5 -6 10 -19 10 -18 0 -27 -7 -31 -24z"/>
<path d="M2277 29 c-6 -23 9 -32 43 -27 l21 3 -21 23 c-26 27 -36 28 -43 1z"/>
<path d="M2504 35 c-8 -21 4 -35 32 -35 29 0 31 11 6 33 -23 21 -31 21 -38 2z"/>
</g>
</svg>
